# xmcd
#
# Track frame offsets: 
#        150
#        14497
#        29902
#        43702
#        57326
#        69836
#        84347
#        99918
#        113004
#        126408
#
# Disc length: 1857 seconds
#
# Revision: 0
# Processed by: cddbd v1.5.2PL0 Copyright (c) Steve Scherf et al.
# Submitted via: ExactAudioCopy v1.1
#
DISCID=81073f0a
DTITLE=吳鶯音 - 吳鶯音之歌第一集
DYEAR=2013
DGENRE=Oldies
TTITLE0=郎如春日風
TTITLE1=我有一段情
TTITLE2=美麗的歸宿
TTITLE3=樓台會
TTITLE4=風流債
TTITLE5=花開等你採
TTITLE6=醉酒
TTITLE7=小倆口問答（合唱：江宏）
TTITLE8=南風
TTITLE9=當初見到你
EXTD=
EXTT0=
EXTT1=
EXTT2=
EXTT3=
EXTT4=
EXTT5=
EXTT6=
EXTT7=
EXTT8=
EXTT9=
PLAYORDER=
